# xmcd
#
# Track frame offsets:
#   150
#   16613
#   30362
#   46455
#   61374
#   77256
#   89918
#   104337
#   119311
#   134706
#   148237
#   164196
#   179289
#   207893
#   224153
#   236466
#   250053
#   265403
#   278939
#   299645
#
# Disc length: 4211 seconds
#
# Revision: 0
# Processed by: cddbd v1.5.1PL0 Copyright (c) Steve Scherf et al.
# Submitted via: Media_Universe 3.0
#
DISCID=3a107114
DTITLE=Mark Chesnutt - Wings - Mixed
DYEAR=1900
DGENRE=Country
TTITLE0=As The Honky Tonk Turns
TTITLE1=King Of Broken Hearts
TTITLE2=Trouble
TTITLE3=I Think Ive Finally Broken Mine
TTITLE4=Wrong Place Wrong Time
TTITLE5=I May Be A Fool
TTITLE6=It Wouldnt Hurt To Have Wings
TTITLE7=Prides Not Hard To Swallow
TTITLE8=Setlin For What They Get
TTITLE9=Strangers
TTITLE10=Make Memories With Me
TTITLE11=Full Blooded Texan
TTITLE12=I Want My Bbay Back
TTITLE13=Im From The Country
TTITLE14=Its A Little Too Late
TTITLE15=Let It Rain
TTITLE16=Lucky Man
TTITLE17=Stay All Night
TTITLE18=I Want My Baby Back
TTITLE19=A Good Way To Get On My Bad Side
EXTD=
EXTT0=
EXTT1=
EXTT2=
EXTT3=
EXTT4=
EXTT5=
EXTT6=
EXTT7=
EXTT8=
EXTT9=
EXTT10=
EXTT11=
EXTT12=
EXTT13=
EXTT14=
EXTT15=
EXTT16=
EXTT17=
EXTT18=
EXTT19=
PLAYORDER=
